# xmcd
#
# Track frame offsets:
#	150
#	8347
#	20133
#	31833
#	49980
#	62409
#	76820
#	89752
#	111492
#	123377
#	138778
#	152613
#
# Disc length: 2722 seconds
#
# Revision: 0
# Processed by: cddbd v1.5.1PL2 Copyright (c) Steve Scherf et al.
# Submitted via: dBpowerAMP V4.0
#
DISCID=900aa00c
DTITLE=The Rough Riders - Ragged but Right
DYEAR=1900
DGENRE=Country
TTITLE0=Sometimes I Want To Step Out
TTITLE1=Old Chunck Of Coal
TTITLE2=Truckdriving Man
TTITLE3=I Don't Know Why
TTITLE4=Yeah Yeah Yeah
TTITLE5=I Hate You For That
TTITLE6=Folsom Prison Blues
TTITLE7=Motorboat To Heaven
TTITLE8=Miner's Prayer
TTITLE9=Ragged But Right
TTITLE10=Honky Tonk Man
TTITLE11=If You Go-/ Right String
EXTD=Ragged but Right
EXTT0=
EXTT1=
EXTT2=
EXTT3=
EXTT4=
EXTT5=
EXTT6=
EXTT7=
EXTT8=
EXTT9=
EXTT10=
EXTT11=
PLAYORDER=
